<svg width="20" height="20" fill="none" version="1.1" viewBox="0 0 20 20" xmlns="http://www.w3.org/2000/svg"><g transform="matrix(1.0871 0 0 1.0871 .22485 .21635)"><path d="m8.9922 0c-1.7474 0.00332-3.4561 0.51471-4.918 1.4719-1.4619 0.95717-2.6139 2.3188-3.3157 3.9191-0.70178 1.6003-0.92306 3.3701-0.63688 5.0938 0.28618 1.7238 1.0675 3.3272 2.2487 4.6148 0.84365 0.9145 1.8676 1.6443 3.0072 2.1435 1.1397 0.4992 2.3704 0.7569 3.6146 0.7569s2.4749-0.2577 3.6146-0.7569 2.1636-1.229 3.0072-2.1435c1.1813-1.2876 1.9626-2.891 2.2487-4.6148 0.2862-1.7238 0.0649-3.4936-0.6368-5.0938-0.7018-1.6003-1.8538-2.9619-3.3157-3.9191-1.4619-0.95718-3.1706-1.4686-4.918-1.4719zm0 16.217c-1.8663-0.0029-3.6588-0.7295-5.0002-2.0271 0.40726-0.9915 1.1001-1.8395 1.9904-2.4363 0.89032-0.5967 1.938-0.9154 3.0098-0.9154 1.0718 0 2.1195 0.3187 3.0098 0.9154 0.8903 0.5968 1.5831 1.4448 1.9904 2.4363-1.3414 1.2976-3.1339 2.0242-5.0002 2.0271zm-1.8019-9.0094c0-0.35638 0.10567-0.70475 0.30367-1.0011 0.19799-0.29632 0.4794-0.52727 0.80865-0.66364 0.32924-0.13638 0.69154-0.17207 1.0411-0.10254 0.34952 0.06952 0.67057 0.24114 0.92257 0.49313 0.252 0.252 0.4236 0.57306 0.4931 0.92258 0.0696 0.34953 0.0339 0.71182-0.1025 1.0411s-0.3673 0.61066-0.66364 0.80865c-0.29631 0.19799-0.64469 0.30367-1.0011 0.30367-0.47788 0-0.93619-0.18984-1.2741-0.52775-0.33791-0.33792-0.52775-0.79623-0.52775-1.2741zm8.0273 5.4056c-0.8049-1.3768-2.0438-2.4478-3.5226-3.0451 0.4587-0.52015 0.7576-1.1616 0.8608-1.8474 0.1032-0.6858 0.0063-1.3868-0.279-2.0189-0.2854-0.63211-0.7471-1.1684-1.3297-1.5447-0.5826-0.37623-1.2614-0.57635-1.9549-0.57635s-1.3723 0.20012-1.9549 0.57635c-0.58261 0.37622-1.0443 0.91256-1.3296 1.5447s-0.38223 1.3331-0.27904 2.0189c0.1032 0.68581 0.40209 1.3273 0.86082 1.8474-1.4788 0.59731-2.7177 1.6683-3.5226 3.0451-0.64152-1.0927-0.98047-2.3366-0.98202-3.6037 0-1.9115 0.75935-3.7448 2.111-5.0964 1.3517-1.3517 3.1849-2.111 5.0964-2.111 1.9115 0 3.7448 0.75936 5.0964 2.111 1.3517 1.3516 2.111 3.1849 2.111 5.0964-0.0015 1.2671-0.3405 2.511-0.982 3.6037z" fill="#000"/></g></svg>
