<svg width="20" height="20" fill="none" version="1.1" viewBox="0 0 20 20" xmlns="http://www.w3.org/2000/svg"><g transform="matrix(1.0475 0 0 1.0475 0 .69582)" stroke="#000" stroke-linecap="round" stroke-linejoin="round" stroke-width="2"><path d="m7.1826 17.409c0.42676 0 0.77273-0.3459 0.77273-0.7727s-0.34597-0.7727-0.77273-0.7727c-0.42677 0-0.77273 0.3459-0.77273 0.7727s0.34596 0.7727 0.77273 0.7727z"/><path d="m15.682 17.409c0.4268 0 0.7728-0.3459 0.7728-0.7727s-0.346-0.7727-0.7728-0.7727c-0.4267 0-0.7727 0.3459-0.7727 0.7727s0.346 0.7727 0.7727 0.7727z"/><path d="m1 1.1819h3.0909l2.0709 10.347c0.07066 0.3558 0.2642 0.6753 0.54674 0.9028 0.28254 0.2274 0.63607 0.3482 0.99871 0.3413h7.5109c0.3626 0.0069 0.7162-0.1139 0.9987-0.3413 0.2825-0.2275 0.4761-0.547 0.5467-0.9028l1.2364-6.4832h-13.136"/></g></svg>
