<svg width="20" height="20" version="1.1" viewBox="0 0 20 20" xmlns="http://www.w3.org/2000/svg"><path d="m10 1.8025c2.675 0 2.9914 0.00959 4.046 0.057527 0.97795 0.047938 1.5053 0.21093 1.86 0.34516 0.4698 0.18217 0.79578 0.40268 1.1505 0.74784 0.35475 0.35475 0.56568 0.68073 0.74784 1.1505 0.13423 0.35475 0.29722 0.88207 0.34516 1.86 0.04794 1.0546 0.05753 1.371 0.05753 4.046 0 2.675-0.0096 2.9914-0.05753 4.046-0.04794 0.97795-0.21093 1.5053-0.34516 1.86-0.18217 0.4698-0.40268 0.79578-0.74784 1.1505-0.34516 0.34516-0.68073 0.56568-1.1505 0.74784-0.35475 0.13423-0.88207 0.29722-1.86 0.34516-1.0546 0.04794-1.371 0.05753-4.046 0.05753-2.675 0-2.9914-0.0096-4.046-0.05753-0.97795-0.047938-1.5053-0.21093-1.86-0.34516-0.4698-0.18217-0.79578-0.40268-1.1505-0.74784-0.35475-0.35475-0.56568-0.68073-0.74784-1.1505-0.13423-0.35475-0.29722-0.88207-0.34516-1.86-0.047939-1.0546-0.057536-1.371-0.057536-4.046 0-2.675 0.0096-2.9914 0.057536-4.046 0.047939-0.97795 0.21093-1.5053 0.34516-1.86 0.18217-0.4698 0.40268-0.79578 0.74784-1.1505 0.35475-0.35475 0.68073-0.56568 1.1505-0.74784 0.35475-0.13423 0.88207-0.29722 1.86-0.34516 1.0642-0.047939 1.3806-0.057526 4.046-0.057526zm0-1.8025c-2.7133 0-3.0585 0.0095877-4.1227 0.057526-1.0642 0.047939-1.7929 0.22051-2.4257 0.4698-0.66155 0.25887-1.2177 0.59444-1.7737 1.1505-0.55609 0.55609-0.90124 1.1122-1.1505 1.7737-0.24928 0.63279-0.41228 1.3615-0.4698 2.4257-0.047939 1.0642-0.057523 1.4094-0.057523 4.1227 0 2.7133 0.0095848 3.0585 0.057523 4.1227 0.047939 1.0642 0.22052 1.7929 0.4698 2.4257 0.25887 0.66155 0.59443 1.2176 1.1505 1.7737 0.55609 0.55609 1.1122 0.90125 1.7737 1.1505 0.63279 0.24928 1.3615 0.41227 2.4257 0.4698 1.0642 0.047941 1.4094 0.057531 4.1227 0.057531 2.7133 0 3.0585-0.0096 4.1227-0.05753 1.0642-0.04794 1.7929-0.22052 2.4257-0.4698 0.66155-0.25887 1.2176-0.59444 1.7737-1.1505s0.90125-1.1122 1.1505-1.7737c0.24928-0.63279 0.41227-1.3615 0.4698-2.4257 0.04794-1.0642 0.05753-1.4094 0.05753-4.1227 0-2.7133-0.0096-3.0585-0.05753-4.1227-0.047939-1.0642-0.22052-1.7929-0.4698-2.4257-0.25887-0.66155-0.59444-1.2176-1.1505-1.7737-0.55609-0.55609-1.1122-0.90125-1.7737-1.1505-0.63279-0.24928-1.3615-0.41227-2.4257-0.4698-1.0642-0.047939-1.3998-0.057526-4.1227-0.057526z" stroke-width=".95877"/><path d="m10 4.861c-2.838 0-5.139 2.3011-5.139 5.1391 0 2.838 2.3011 5.139 5.139 5.139 2.838 0 5.139-2.3011 5.139-5.139 0-2.838-2.3011-5.1391-5.139-5.1391zm0 8.4756c-1.8408 0-3.3365-1.4957-3.3365-3.3365 0-1.8409 1.4957-3.3366 3.3365-3.3366 1.8408 0 3.3365 1.4957 3.3365 3.3366 0 1.8408-1.4957 3.3365-3.3365 3.3365z" stroke-width=".95877"/><path d="m16.549 4.6597c0 0.66155-0.53691 1.1985-1.1985 1.1985s-1.1985-0.53691-1.1985-1.1985c0-0.66155 0.53691-1.1985 1.1985-1.1985s1.1985 0.53691 1.1985 1.1985z" stroke-width=".95877"/></svg>
