<svg width="20" height="20" fill="none" version="1.1" viewBox="0 0 20 20" xmlns="http://www.w3.org/2000/svg"><g transform="matrix(1.1948 0 0 1.1948 1.4737 -.15559)" stroke="#000" stroke-linecap="round" stroke-linejoin="round" stroke-width="1.5"><path d="m13.273 7.1364c0 4.7727-6.1363 8.8636-6.1363 8.8636s-6.1364-4.0909-6.1364-8.8636c0-1.6275 0.64651-3.1883 1.7973-4.3391s2.7116-1.7973 4.3391-1.7973c1.6275 0 3.1882 0.64651 4.339 1.7973s1.7973 2.7116 1.7973 4.3391z"/><path d="m7.137 9.182c1.1297 0 2.0454-0.91578 2.0454-2.0454s-0.91578-2.0455-2.0454-2.0455c-1.1297 0-2.0455 0.91579-2.0455 2.0455s0.91578 2.0454 2.0455 2.0454z"/></g></svg>
