<svg width="20" height="20" fill="none" version="1.1" viewBox="0 0 20 20" xmlns="http://www.w3.org/2000/svg"><path d="m4.6549 11.572c0.26417 0.10567 0.49313 0 0.57239-0.28178 0.052835-0.20253 0.17611-0.70446 0.22894-0.9158 0.079252-0.29059 0.044029-0.38745-0.16731-0.63402-0.4579-0.54596-0.7573-1.2504-0.7573-2.2455 0-2.8883 2.1574-5.4772 5.6269-5.4772 3.0732 0 4.7551 1.8756 4.7551 4.3853 0 3.2934-1.4618 6.076-3.628 6.076-1.1976 0-2.087-0.98625-1.8052-2.2014 0.34343-1.4442 1.0127-3.0116 1.0127-4.0595 0-0.93341-0.50194-1.7171-1.541-1.7171-1.224 0-2.2014 1.268-2.2014 2.9587 0 1.0831 0.36105 1.8052 0.36105 1.8052s-1.2504 5.3011-1.4706 6.2257c-0.44029 1.8492-0.061649 4.1123-0.035232 4.3413 0.017612 0.13209 0.19373 0.16731 0.27298 0.06164 0.11448-0.1497 1.5674-1.9461 2.0606-3.7425 0.14089-0.51074 0.80132-3.1437 0.80132-3.1437 0.39626 0.7573 1.5586 1.4265 2.7914 1.4265 3.672 0 6.1729-3.3462 6.1729-7.8372 0-3.3902-2.8707-6.5515-7.2384-6.5515-5.4332 0-8.1718 3.8922-8.1718 7.1415 0.026417 1.9901 0.7661 3.7337 2.3599 4.3853z" fill="#000" stroke-width=".88058"/></svg>
