<svg width="20" height="20" fill="none" version="1.1" viewBox="0 0 20 20" xmlns="http://www.w3.org/2000/svg"><path d="m8.9177 1.4369c0.36017-1.0227 1.8066-1.0223 2.1662 5.741e-4l1.628 4.6308c0.1588 0.45165 0.58111 0.75737 1.0598 0.76714l4.9387 0.10079c1.0919 0.022287 1.5389 1.4127 0.66458 2.0672l-3.9086 2.9255c-0.38764 0.29015-0.5516 0.79238-0.4098 1.2553l1.4253 4.6568c0.31828 1.0396-0.85255 1.8982-1.7485 1.2822l-4.0814-2.8065c-0.39176-0.26937-0.90899-0.26948-1.3008-2.3e-4l-4.0848 2.8068c-0.89624 0.6159-2.0668-0.24331-1.748-1.283l1.4277-4.6555c0.14207-0.4633-0.021988-0.96587-0.41003-1.2561l-3.9107-2.925c-0.87475-0.65427-0.42784-2.0451 0.6643-2.0674l4.9373-0.10077c0.47842-0.0097598 0.90063-0.31521 1.0596-0.76657z" fill="#000" stroke-width="1.1482"/></svg>
