<svg width="20" height="20" fill="none" version="1.1" viewBox="0 0 20 20" xmlns="http://www.w3.org/2000/svg"><path d="m-4.8e-7 16.279c1.8137 1.1631 3.9724 1.8433 6.2888 1.8433 7.6096 0 11.917-6.4268 11.661-12.203 0.79842-0.58157 1.4983-1.3011 2.0503-2.1193-0.73928 0.32528-1.5278 0.54215-2.3558 0.64071 0.84771-0.50271 1.4983-1.311 1.8038-2.2671-0.78857 0.47314-1.6658 0.80828-2.6023 0.99556-0.74914-0.79842-1.8137-1.2913-2.9966-1.2913-2.6516 0-4.5934 2.4741-3.9921 5.037-3.4105-0.16757-6.4268-1.8038-8.4574-4.2878-1.0744 1.8433-0.56185 4.2583 1.2716 5.4805-0.67028-0.019714-1.3011-0.20701-1.863-0.51258-0.039428 1.9024 1.3208 3.6767 3.2923 4.071-0.58157 0.15767-1.2124 0.1971-1.8531 0.068961 0.52243 1.6264 2.0404 2.8191 3.8344 2.8487-1.7348 1.3504-3.9034 1.9517-6.0818 1.6954z" fill="#000" stroke-width=".98571"/></svg>
