<svg width="20" height="20" fill="none" version="1.1" viewBox="0 0 20 20" xmlns="http://www.w3.org/2000/svg"><path d="m19.58 5.1543c-0.22981-0.86671-0.9061-1.5496-1.7662-1.7794-1.5627-0.42022-7.8135-0.42022-7.8135-0.42022s-6.2574 0-7.8135 0.42022c-0.86014 0.22981-1.5364 0.91267-1.7662 1.7794-0.42022 1.5693-0.42022 4.8457-0.42022 4.8457s0 3.2764 0.42022 4.8457c0.22981 0.86671 0.90611 1.5496 1.7662 1.7794 1.5627 0.42022 7.8135 0.42022 7.8135 0.42022s6.2574 0 7.8135-0.42022c0.86014-0.22981 1.5364-0.91267 1.7662-1.7794 0.42022-1.5693 0.42022-4.8457 0.42022-4.8457s0-3.2764-0.42022-4.8457zm-11.622 7.8201v-5.9488l5.2265 2.9744z" fill="#000" stroke-width=".6566"/></svg>
